<svg width="14" height="15" viewBox="0 0 14 15" fill="none" xmlns="http://www.w3.org/2000/svg">
<path d="M1.36842 8.19737H6.38158V13.689C6.38158 13.8589 6.43587 14.0162 6.55203 14.1437L6.73684 13.9754L6.55203 14.1437C6.66981 14.273 6.82443 14.3409 6.99908 14.3409C7.17367 14.3409 7.32817 14.2731 7.44632 14.1445L7.26224 13.9754L7.44632 14.1445C7.56341 14.0171 7.61842 13.8595 7.61842 13.689V8.19737H12.6316C12.8056 8.19737 12.9598 8.13004 13.0778 8.00204C13.1953 7.87471 13.25 7.71688 13.25 7.54646C13.25 7.37603 13.1953 7.21834 13.0786 7.09067C12.9607 6.9618 12.8063 6.89354 12.6316 6.89354H7.61842V1.40191C7.61842 1.23203 7.56413 1.0747 7.44797 0.947192C7.33019 0.817904 7.17558 0.75 7.00092 0.75C6.82632 0.75 6.67183 0.817823 6.55368 0.946392C6.43659 1.07381 6.38158 1.23141 6.38158 1.40191V6.89354H1.36842C1.19441 6.89354 1.04022 6.96087 0.922158 7.08887C0.804705 7.21621 0.75 7.37403 0.75 7.54445C0.75 7.71488 0.804686 7.87257 0.921424 8.00023C1.03927 8.12911 1.19365 8.19737 1.36842 8.19737Z" fill="#6E6E82" stroke="#6E6E82" stroke-width="0.5"/>
</svg>
